<svg width="157" height="39" viewBox="0 0 157 39" fill="none" xmlns="http://www.w3.org/2000/svg">
<path d="M156.054 2.18392C155.501 1.44774 154.949 0.895659 152.189 0.711633C151.453 0.711633 149.244 0.527201 145.379 0.527201C135.258 0.527201 128.264 3.65579 124.768 9.72896C125.688 3.65579 119.799 0.527201 106.916 0.527201C91.8255 0.527201 82.2557 6.60038 78.3909 18.9307C76.9186 23.5315 76.9186 27.2122 78.0228 30.1567H74.3421C71.5815 30.3412 67.9009 30.5249 65.5085 30.5249C59.9874 30.5249 56.4908 29.6047 55.2025 27.7644C54.0983 26.108 54.0983 22.9795 55.5706 18.3786C57.9631 10.8332 63.6681 7.52056 72.8699 7.52056C77.6548 7.52056 82.2557 8.07282 82.2557 8.07282C82.808 8.07282 83.1758 7.3367 83.1758 6.78462L82.9914 6.23236L82.6237 3.65585C82.4392 1.99959 81.1514 1.07947 78.943 0.711345C76.9185 0.526904 75.2623 0.526855 73.0539 0.526855C73.0539 0.526855 73.0539 0.526855 72.8694 0.526855C60.9072 0.526855 52.4416 4.57565 47.8408 12.3051C49.497 4.39162 43.976 0.526855 31.2776 0.526855C24.1002 0.526855 18.9473 0.711347 16.0027 1.07917C13.6103 1.44692 12.138 2.36742 11.5859 4.02368L10.4817 7.3363C10.2972 7.88857 10.6661 8.25644 11.4019 8.25644C11.9542 8.25644 14.1624 7.88836 17.8431 7.70419C22.812 7.33606 26.3087 7.15187 28.7011 7.15187C35.6945 7.15187 38.8231 8.99233 37.7189 12.4889C37.5344 13.2251 36.9827 13.7771 36.0625 13.9611C29.4373 15.0654 24.1003 15.8015 20.2356 16.3536C9.19351 17.8259 2.75228 21.1386 1.09594 26.6596C-1.29651 34.205 4.59262 37.8857 18.7633 37.8857C25.7566 37.8857 31.8297 37.5175 36.6146 36.5975C39.3751 36.0452 40.8474 35.4933 41.3996 33.6529L43.976 25.1873C43.7916 33.6529 49.497 37.8857 61.6433 37.8857C66.7963 37.8857 71.7652 37.7012 74.1577 37.3334C76.5501 36.9653 77.8384 36.4132 78.3904 34.5728L78.9427 31.9964C81.5193 36.0451 87.2243 38.0695 95.8739 38.0695C105.076 38.0695 110.413 37.8851 111.885 37.3334C113.173 36.9653 113.909 36.2292 114.277 35.309C114.277 35.1245 114.277 34.9409 114.462 34.7567L115.566 31.2601C115.75 30.7078 115.382 30.3399 114.646 30.3399L108.757 30.7081C104.892 30.8925 101.763 31.0762 99.5551 31.0762C95.3222 31.0762 92.5617 30.708 90.9054 30.1559C88.5129 29.2358 87.4087 27.5795 87.5927 24.8189L106.18 22.4265C114.462 21.3223 120.167 18.7458 122.927 14.697L116.486 36.2291C116.302 36.5972 116.486 36.9652 116.671 37.1493C116.855 37.3337 117.223 37.5174 117.959 37.5174H125.688C126.977 37.5174 127.529 36.7812 127.713 36.2291L134.522 12.4887C135.442 9.36011 138.203 7.88787 143.356 7.88787C147.956 7.88787 151.269 7.88786 153.477 8.0723H153.662C154.03 8.0723 154.766 7.88786 155.318 6.96807L156.422 3.65545C156.422 3.10319 156.422 2.55124 156.054 2.18322L156.054 2.18392ZM32.0142 30.5252C29.6218 30.8934 26.1251 31.0775 21.7082 31.0775C13.7948 31.0775 10.4822 29.4212 11.4024 26.2926C12.1385 24.0842 14.1628 22.6119 17.4755 22.2439L35.3268 19.8514L32.0142 30.5252ZM114.278 11.3856C113.541 13.7781 110.045 15.4344 103.788 16.3546L88.8809 18.379L89.249 17.0907C90.5373 13.042 92.1936 10.4655 94.402 8.99325C96.6105 7.52093 100.291 6.78485 105.444 6.78485C112.253 6.96929 115.198 8.4411 114.278 11.3856H114.278Z" fill="#84BA13"/>
</svg>
