<svg width="196" height="60" viewBox="0 0 196 60" fill="none" xmlns="http://www.w3.org/2000/svg">
<path d="M47.1403 42.0603C47.0704 42.2556 45.9387 46.1347 43.2003 50.1254C40.8391 53.5859 38.3801 57.0324 34.4959 57.1021C30.6957 57.1719 29.4662 54.8417 25.121 54.8417C20.7618 54.8417 19.4066 57.0324 15.8159 57.1719C12.0715 57.3114 9.22126 53.4324 6.84609 49.9859C1.95602 42.9393 -1.77441 30.0742 3.24141 21.3952C5.72836 17.0835 10.1713 14.3486 14.9915 14.2789C18.6661 14.2091 22.1311 16.7486 24.3665 16.7486C26.602 16.7486 30.8214 13.7068 35.2364 14.1533C37.0947 14.237 42.2921 14.8928 45.6313 19.7765C45.3659 19.944 39.4279 23.3905 39.4838 30.5765C39.5816 39.1719 47.0425 42.0184 47.1403 42.0603ZM32.3583 9.49283C34.3423 7.09283 35.6835 3.75794 35.3203 0.437012C32.4561 0.54864 28.9911 2.33469 26.9513 4.73469C25.107 6.85562 23.5003 10.2603 23.9334 13.5114C27.105 13.7486 30.3743 11.8789 32.3583 9.49283Z" fill="#2D2D2D"/>
<path d="M81.1333 30.8276H78.7301L77.4028 26.6974H72.8201L71.5627 30.8416H69.2155L73.7562 16.7485H76.5645L81.1333 30.8276ZM77.0116 24.9532L75.824 21.2695C75.6983 20.8927 75.4608 20.0137 75.1115 18.6183H75.0696C74.9299 19.2183 74.7063 20.0974 74.3989 21.2695L73.2253 24.9532H77.0116ZM91.598 30.8276H89.614L89.4883 29.2788H89.4464C88.7338 30.4648 87.658 31.0509 86.2189 31.0509C85.213 31.0509 84.4166 30.7439 83.8158 30.116C83.1033 29.3485 82.754 28.1904 82.754 26.6416V20.6555H85.0174V26.2648C85.0174 28.2183 85.688 29.195 87.0293 29.195C88.0352 29.195 88.7338 28.7067 89.125 27.7299C89.2228 27.4788 89.2787 27.1997 89.2787 26.8788V20.6695H91.5421V27.8974C91.5142 28.8602 91.5421 29.8369 91.598 30.8276ZM99.492 22.3578H97.005V27.2974C97.005 28.5532 97.4382 29.1811 98.3184 29.1811C98.7235 29.1811 99.0589 29.1532 99.3243 29.0834L99.3802 30.7997C98.9331 30.9671 98.3463 31.0509 97.6198 31.0509C96.7256 31.0509 96.027 30.7857 95.524 30.2416C95.0211 29.6974 94.7696 28.7904 94.7696 27.5067V22.3857H93.2886V20.6974H94.7696V18.8416L96.9911 18.1718V20.6974H99.478V22.3578H99.492ZM110.627 25.6648C110.627 27.2276 110.18 28.5113 109.286 29.516C108.35 30.5485 107.107 31.0648 105.556 31.0648C104.061 31.0648 102.873 30.5764 101.979 29.5857C101.099 28.595 100.652 27.3532 100.652 25.8462C100.652 24.2695 101.113 22.9857 102.021 21.9811C102.929 20.9764 104.172 20.4741 105.709 20.4741C107.204 20.4741 108.406 20.9625 109.314 21.9532C110.194 22.902 110.627 24.1439 110.627 25.6648ZM108.28 25.7346C108.28 24.7997 108.071 24.0043 107.679 23.3346C107.204 22.5253 106.534 22.1206 105.653 22.1206C104.745 22.1206 104.061 22.5253 103.586 23.3346C103.18 24.0043 102.985 24.8136 102.985 25.7764C102.985 26.7113 103.18 27.5067 103.586 28.1764C104.075 28.9857 104.759 29.3904 105.639 29.3904C106.506 29.3904 107.176 28.9857 107.665 28.1625C108.071 27.4788 108.28 26.6695 108.28 25.7346ZM118.172 22.6509C117.949 22.609 117.711 22.595 117.459 22.595C116.663 22.595 116.048 22.902 115.615 23.4881C115.238 24.0183 115.056 24.6881 115.056 25.4974V30.8276H112.793L112.807 23.8648C112.807 22.6927 112.779 21.6323 112.723 20.6695H114.693L114.777 22.609H114.847C115.084 21.9392 115.462 21.409 115.979 21.0043C116.481 20.6416 117.026 20.4602 117.613 20.4602C117.823 20.4602 118.004 20.4741 118.186 20.502V22.6509H118.172ZM128.818 20.6695L126.248 27.716C125.018 31.0509 123.872 33.1997 122.797 34.1625C122 34.8741 121.176 35.2927 120.31 35.4323L119.765 33.5346C120.282 33.3811 120.785 33.116 121.288 32.7392C121.889 32.2788 122.364 31.6927 122.713 30.9671C122.825 30.7578 122.88 30.6043 122.88 30.5067C122.88 30.409 122.839 30.2555 122.755 30.0323L119.066 20.6834H121.553L123.481 26.3485C123.663 26.8648 123.859 27.5346 124.082 28.3578H124.124C124.25 27.9113 124.445 27.2416 124.697 26.3346L126.415 20.6834H128.818V20.6695ZM137.635 30.8276H129.335V29.516L133.401 24.1857C133.653 23.8509 134.114 23.3067 134.784 22.5392V22.4974H129.741V20.6834H137.523V22.0788L133.541 27.3253C133.094 27.8974 132.633 28.4416 132.158 28.9718V29.0136H137.621V30.8276H137.635ZM148.588 25.6648C148.588 27.2276 148.141 28.5113 147.247 29.516C146.311 30.5485 145.067 31.0648 143.517 31.0648C142.022 31.0648 140.834 30.5764 139.94 29.5857C139.06 28.595 138.613 27.3532 138.613 25.8462C138.613 24.2695 139.074 22.9857 139.982 21.9811C140.89 20.9764 142.133 20.4741 143.684 20.4741C145.179 20.4741 146.381 20.9625 147.289 21.9532C148.155 22.902 148.588 24.1439 148.588 25.6648ZM146.241 25.7346C146.241 24.7997 146.031 24.0043 145.64 23.3346C145.165 22.5253 144.495 22.1206 143.614 22.1206C142.706 22.1206 142.022 22.5253 141.547 23.3346C141.141 24.0043 140.932 24.8136 140.932 25.7764C140.932 26.7113 141.141 27.5067 141.547 28.1764C142.036 28.9857 142.72 29.3904 143.6 29.3904C144.467 29.3904 145.137 28.9857 145.626 28.1625C146.031 27.4788 146.241 26.6695 146.241 25.7346ZM164.237 20.6695L161.051 30.8276H158.983L157.67 26.4183C157.335 25.316 157.069 24.2276 156.859 23.1392H156.818C156.622 24.2555 156.343 25.3439 156.007 26.4183L154.61 30.8276H152.514L149.496 20.6695H151.816L152.961 25.4974C153.241 26.6416 153.464 27.7299 153.646 28.7625H153.688C153.856 27.9113 154.135 26.8369 154.526 25.5253L155.965 20.6695H157.81L159.193 25.4136C159.528 26.5718 159.794 27.6881 160.003 28.7625H160.073C160.227 27.716 160.45 26.5997 160.758 25.4136L161.987 20.6695H164.237ZM173.458 30.8276H171.432L171.264 29.6555H171.208C170.51 30.5904 169.518 31.0509 168.232 31.0509C167.268 31.0509 166.5 30.7439 165.913 30.1299C165.382 29.5718 165.117 28.8881 165.117 28.0648C165.117 26.823 165.634 25.8741 166.682 25.2183C167.715 24.5625 169.182 24.2416 171.069 24.2555V24.0741C171.069 22.7346 170.37 22.0648 168.959 22.0648C167.953 22.0648 167.073 22.316 166.304 22.8183L165.843 21.3392C166.793 20.7532 167.953 20.4602 169.336 20.4602C172.005 20.4602 173.332 21.8555 173.332 24.6602V28.3997C173.318 29.4183 173.36 30.2276 173.458 30.8276ZM171.125 27.3392V25.7764C168.61 25.7346 167.352 26.4183 167.352 27.8276C167.352 28.3578 167.506 28.7485 167.799 29.0136C168.093 29.2788 168.456 29.4043 168.903 29.4043C169.406 29.4043 169.867 29.2509 170.3 28.9299C170.719 28.623 170.985 28.2183 171.083 27.7299C171.111 27.6323 171.125 27.4927 171.125 27.3392ZM184.942 30.8276H182.679V24.995C182.679 23.195 181.994 22.302 180.625 22.302C179.955 22.302 179.41 22.5532 178.991 23.0416C178.571 23.5299 178.362 24.116 178.362 24.7857V30.8276H176.098V23.5718C176.098 22.6788 176.07 21.716 176.015 20.6695H177.999L178.096 22.2323H178.152C178.418 21.7439 178.809 21.3392 179.326 21.0183C179.941 20.6416 180.625 20.4602 181.38 20.4602C182.33 20.4602 183.112 20.7671 183.741 21.3811C184.523 22.1346 184.915 23.2509 184.915 24.7439V30.8276H184.942ZM195.924 20.6695L193.353 27.716C192.124 31.0509 190.978 33.1997 189.902 34.1625C189.106 34.8741 188.282 35.2927 187.415 35.4323L186.871 33.5346C187.388 33.3811 187.89 33.116 188.393 32.7392C188.994 32.2788 189.469 31.6927 189.819 30.9671C189.93 30.7578 189.986 30.6043 189.986 30.5067C189.986 30.409 189.944 30.2555 189.86 30.0323L186.172 20.6834H188.659L190.587 26.3485C190.769 26.8648 190.964 27.5346 191.188 28.3578H191.23C191.355 27.9113 191.551 27.2416 191.803 26.3346L193.521 20.6834H195.924V20.6695ZM76.3969 51.9532C76.3969 52.902 76.0476 53.6555 75.349 54.2276C74.6504 54.7997 73.6864 55.0788 72.4569 55.0788C71.2972 55.0788 70.3192 54.8415 69.5089 54.395L69.9839 52.7206C70.7663 53.195 71.5906 53.4322 72.4708 53.4322C73.6305 53.4322 74.2033 53.0136 74.2033 52.1625C74.2033 51.7857 74.0776 51.4788 73.8261 51.2276C73.5746 50.9904 73.1275 50.7392 72.4848 50.502C70.6685 49.8322 69.7603 48.8555 69.7603 47.5718C69.7603 46.6927 70.0957 45.9671 70.7663 45.3811C71.4369 44.795 72.3172 44.502 73.4209 44.502C74.4269 44.502 75.2791 44.7113 75.9917 45.102L75.5167 46.7067C74.86 46.316 74.1754 46.1206 73.4489 46.1206C72.9738 46.1206 72.6106 46.2322 72.3451 46.4555C72.0796 46.6788 71.9539 46.9578 71.9539 47.3067C71.9539 47.6555 72.0936 47.9346 72.373 48.1578C72.6106 48.3671 73.0716 48.6043 73.7562 48.8416C75.5167 49.5532 76.3969 50.5718 76.3969 51.9532ZM88.1051 49.6788C88.1051 51.409 87.644 52.7764 86.7079 53.7811C85.8696 54.6741 84.8357 55.1206 83.5923 55.1206C82.251 55.1206 81.2869 54.6462 80.7001 53.6834H80.6582V59.0415H78.3808V48.0881C78.3808 46.9997 78.3529 45.8834 78.297 44.7392H80.281L80.4067 46.3439H80.4486C81.2031 45.1299 82.3488 44.5299 83.8857 44.5299C85.0872 44.5299 86.0932 45.0043 86.8896 45.9532C87.6999 46.8741 88.1051 48.1299 88.1051 49.6788ZM85.7998 49.7625C85.7998 48.7718 85.5762 47.9625 85.1291 47.3206C84.6401 46.6509 83.9835 46.316 83.1591 46.316C82.6003 46.316 82.0973 46.4974 81.6362 46.8741C81.1891 47.2369 80.8818 47.7253 80.7421 48.3253C80.6722 48.6043 80.6442 48.8276 80.6442 49.009V50.6974C80.6442 51.4369 80.8678 52.0648 81.3289 52.5671C81.776 53.0695 82.3767 53.3346 83.1033 53.3346C83.9555 53.3346 84.6122 53.0136 85.0872 52.3578C85.5623 51.6881 85.7998 50.8229 85.7998 49.7625ZM95.6637 46.7067C95.4402 46.6648 95.2027 46.6509 94.9512 46.6509C94.1548 46.6509 93.5401 46.9578 93.1069 47.5439C92.7297 48.0741 92.5481 48.7439 92.5481 49.5532V54.8834H90.2847L90.3126 47.9206C90.3126 46.7485 90.2847 45.6881 90.2288 44.7253H92.1988L92.2826 46.6648H92.3385C92.576 45.995 92.9533 45.4648 93.4702 45.0602C93.9732 44.6974 94.5181 44.516 95.1049 44.516C95.3145 44.516 95.4961 44.5299 95.6637 44.5578V46.7067ZM104.815 54.8834H96.53V53.5718L100.596 48.2416C100.847 47.9067 101.308 47.3625 101.979 46.595V46.5532H96.9352V44.7392H104.717V46.1346L100.735 51.3811C100.288 51.9532 99.8273 52.4974 99.3523 53.0276V53.0695H104.815V54.8834ZM114.833 49.316C114.833 49.7206 114.805 50.0555 114.749 50.3346H107.959C107.987 51.3392 108.308 52.1067 108.937 52.6369C109.51 53.1113 110.25 53.3485 111.158 53.3485C112.164 53.3485 113.072 53.1811 113.897 52.8741L114.246 54.4369C113.282 54.8555 112.15 55.0648 110.837 55.0648C109.258 55.0648 108.015 54.6043 107.12 53.6695C106.226 52.7485 105.765 51.4927 105.765 49.9439C105.765 48.409 106.184 47.1392 107.023 46.1206C107.903 45.0322 109.09 44.4881 110.585 44.4881C112.052 44.4881 113.156 45.0322 113.911 46.1206C114.539 46.9857 114.833 48.0462 114.833 49.316ZM112.681 48.7299C112.695 48.0602 112.555 47.4881 112.248 46.9997C111.857 46.3718 111.256 46.0648 110.446 46.0648C109.705 46.0648 109.104 46.3718 108.643 46.9857C108.266 47.4741 108.043 48.0602 107.973 48.7439H112.681V48.7299ZM125.996 54.8834H123.984L123.872 53.2509H123.817C123.174 54.4927 122.084 55.1067 120.547 55.1067C119.318 55.1067 118.298 54.6322 117.487 53.6695C116.677 52.7067 116.272 51.4648 116.272 49.9299C116.272 48.2834 116.705 46.9578 117.585 45.9392C118.438 44.9904 119.485 44.516 120.729 44.516C122.098 44.516 123.048 44.9764 123.593 45.8974H123.635V40.0648H125.898V52.1485C125.912 53.1253 125.94 54.0462 125.996 54.8834ZM123.649 50.5857V48.8974C123.649 48.6043 123.635 48.3671 123.593 48.1857C123.467 47.6416 123.202 47.1811 122.783 46.8183C122.364 46.4555 121.861 46.2602 121.274 46.2602C120.435 46.2602 119.779 46.595 119.29 47.2648C118.815 47.9346 118.563 48.7857 118.563 49.8322C118.563 50.8369 118.787 51.6462 119.248 52.2741C119.737 52.9439 120.394 53.2788 121.218 53.2788C121.958 53.2788 122.545 52.9997 122.992 52.4416C123.439 51.9392 123.649 51.3113 123.649 50.5857ZM136.377 54.8834H134.351L134.184 53.7113H134.128C133.429 54.6462 132.437 55.1067 131.152 55.1067C130.188 55.1067 129.419 54.7997 128.832 54.1857C128.301 53.6276 128.036 52.9439 128.036 52.1206C128.036 50.8788 128.553 49.9299 129.601 49.2741C130.635 48.6183 132.102 48.2974 133.988 48.3113V48.1299C133.988 46.7904 133.275 46.1206 131.878 46.1206C130.872 46.1206 129.992 46.3718 129.224 46.8741L128.763 45.395C129.713 44.809 130.872 44.516 132.255 44.516C134.924 44.516 136.251 45.9113 136.251 48.716V52.4555C136.237 53.4741 136.279 54.2834 136.377 54.8834ZM134.044 51.3811V49.8183C131.529 49.7764 130.271 50.4602 130.271 51.8695C130.271 52.3997 130.411 52.7904 130.705 53.0555C130.998 53.3206 131.361 53.4462 131.808 53.4462C132.311 53.4462 132.772 53.2927 133.206 52.9718C133.625 52.6509 133.89 52.2602 133.988 51.7718C134.03 51.6741 134.044 51.5346 134.044 51.3811ZM152.458 44.7113L149.287 54.8834H147.219L145.906 50.4741C145.57 49.3718 145.305 48.2834 145.095 47.195H145.053C144.858 48.3113 144.592 49.3997 144.243 50.4741L142.846 54.8834H140.75L137.76 44.7253H140.08L141.225 49.5532C141.505 50.6974 141.728 51.7857 141.91 52.8183H141.952C142.119 51.9671 142.399 50.8927 142.79 49.5811L144.229 44.7253H146.073L147.457 49.4695C147.792 50.6276 148.057 51.7439 148.267 52.8183H148.323C148.477 51.7718 148.7 50.6555 149.007 49.4695L150.237 44.7253H152.458V44.7113ZM161.233 44.9904L160.799 46.7067C160.227 46.4276 159.57 46.2881 158.829 46.2881C157.838 46.2881 157.055 46.6229 156.468 47.2788C155.895 47.9346 155.602 48.7857 155.602 49.8043C155.602 50.8788 155.909 51.7299 156.51 52.3578C157.111 52.9857 157.893 53.2927 158.829 53.2927C159.528 53.2927 160.213 53.1532 160.883 52.8741L161.205 54.5625C160.464 54.9113 159.528 55.0788 158.396 55.0788C156.846 55.0788 155.616 54.6043 154.694 53.6695C153.772 52.7346 153.311 51.4648 153.311 49.902C153.311 48.3392 153.8 47.0276 154.792 46.0229C155.784 45.0183 157.111 44.502 158.788 44.502C159.738 44.502 160.548 44.6695 161.233 44.9904ZM170.831 54.8834H168.805L168.638 53.7113H168.568C167.869 54.6462 166.877 55.1067 165.592 55.1067C164.628 55.1067 163.859 54.7997 163.272 54.1857C162.742 53.6276 162.476 52.9439 162.476 52.1206C162.476 50.8788 162.993 49.9299 164.041 49.2741C165.075 48.6183 166.542 48.2974 168.428 48.3113V48.1299C168.428 46.7904 167.729 46.1206 166.318 46.1206C165.312 46.1206 164.432 46.3718 163.664 46.8741L163.203 45.395C164.153 44.809 165.312 44.516 166.696 44.516C169.364 44.516 170.691 45.9113 170.691 48.716V52.4555C170.677 53.4741 170.733 54.2834 170.831 54.8834ZM168.484 51.3811V49.8183C165.969 49.7764 164.712 50.4602 164.712 51.8695C164.712 52.3997 164.851 52.7904 165.145 53.0555C165.438 53.3206 165.801 53.4462 166.248 53.4462C166.751 53.4462 167.212 53.2927 167.646 52.9718C168.065 52.6509 168.33 52.2602 168.428 51.7718C168.47 51.6741 168.484 51.5346 168.484 51.3811Z" fill="#2D2D2D"/>
</svg>
