<svg width="221" height="53" viewBox="0 0 221 53" fill="none" xmlns="http://www.w3.org/2000/svg">
<path d="M85.6615 37.6468H80.5369V15.2447H85.6615V24.3218H97.0653V15.2447H102.19V37.6447H97.0653V28.2697H85.6615V37.6468ZM111.483 28.6593C111.483 32.6218 112.738 34.2718 116.976 34.2718C121.214 34.2718 122.414 32.6051 122.414 28.6593V15.2426H127.535V28.7843C127.798 30.8947 127.294 33.028 126.112 34.7989C124.104 36.9905 121.191 37.8926 116.955 37.8926C112.719 37.8926 109.768 36.9905 107.768 34.7989C106.647 33.5947 106.371 31.6218 106.371 28.7843V15.2426H111.46L111.483 28.6593ZM144.287 15.2426L154.661 37.6447H148.987L146.749 32.3072H136.165L133.996 37.6447H128.551L138.853 15.2426H144.287ZM137.809 28.3176H145.067L141.371 19.7093L137.809 28.3176ZM189.356 15.2447L181.826 37.6447H175.551L170.384 20.9447L165.846 37.6676H159.602L151.493 15.2676H156.994L162.641 32.4884L167.389 15.2676H173.428L178.883 32.4884L184.139 15.2676L189.356 15.2447ZM196.269 24.353H210.444V28.2364H196.221C196.248 32.2614 197.978 33.7239 202.015 33.7239H210.423V37.6259H201.776C199.091 37.8759 196.401 37.1822 194.179 35.6614C192.88 34.6056 191.861 33.2485 191.211 31.7092C190.562 30.1699 190.301 28.4953 190.452 26.8322C190.452 18.9155 194.081 15.228 201.914 15.228H210.421V19.1322H202.013C198.323 19.1301 196.459 20.8114 196.25 24.3364L196.269 24.353ZM214.958 15.2447H220.313V37.6468H214.958V15.2447Z" fill="#2D2D2D"/>
<path d="M30.772 41.2525C30.8473 41.19 30.8703 41.0859 30.8306 40.9963C25.5966 29.809 19.0719 19.2671 11.3885 9.58379C11.3885 9.58379 5.28086 15.3546 5.71384 21.1463C5.9218 23.845 7.19518 26.3517 9.25503 28.1171C14.5825 33.29 27.4839 39.8192 30.4854 41.2963C30.5796 41.3484 30.6988 41.3296 30.7741 41.2546L30.772 41.2525ZM28.7786 45.6796C28.7587 45.6225 28.7214 45.573 28.6719 45.5379C28.6225 45.5028 28.5633 45.4839 28.5025 45.4838V45.4796L7.02113 46.2255C9.34915 50.363 13.2961 53.5755 17.3602 52.59C20.1798 51.888 26.5719 47.4484 28.6552 45.9505V45.9442C28.8163 45.7984 28.7598 45.6817 28.7598 45.6817L28.7786 45.6796ZM29.1029 43.7567C29.2074 43.59 29.0192 43.4442 29.0192 43.4442L29.0213 43.4359C19.6088 37.1025 1.30251 27.3671 1.30251 27.3671C0.312914 30.4181 0.521801 33.7294 1.88704 36.6331C3.25228 39.5367 5.67228 41.8166 8.6589 43.013C9.97082 43.5308 11.3579 43.8347 12.7669 43.913C13.0891 43.9755 25.5428 43.9192 28.877 43.9046C28.9711 43.8942 29.0547 43.838 29.0987 43.7546L29.1029 43.7567ZM30.5294 0.346291C29.5923 0.429625 27.0698 1.00046 27.0698 1.00046C23.7377 1.84629 21.0813 4.34421 20.0376 7.60462C19.448 9.82963 19.4581 12.1702 20.0669 14.39C21.964 22.7775 31.3075 36.565 33.3113 39.4567C33.4535 39.5984 33.5707 39.5463 33.5707 39.5463C33.692 39.5171 33.7756 39.4046 33.7694 39.2796H33.7735C36.8608 8.50254 30.5315 0.321289 30.5315 0.321289L30.5294 0.346291ZM37.6369 39.538C37.754 39.5859 37.8879 39.5359 37.9464 39.4234H37.9485C40.0109 36.4525 49.2958 22.7421 51.1825 14.39C51.7472 12.165 51.7598 9.83587 51.218 7.60462C50.6977 5.99258 49.7724 4.53972 48.5299 3.38391C47.2875 2.22809 45.7691 1.40765 44.1189 1.00046C44.1189 1.00046 42.477 0.587959 40.7367 0.344209C40.7367 0.344209 34.3697 8.50671 37.4653 39.3025H37.4695C37.4716 39.4067 37.5365 39.5005 37.6369 39.5359V39.538ZM42.7196 45.5025C42.7196 45.5025 42.5104 45.5275 42.477 45.665C42.4519 45.7692 42.4832 45.8817 42.5606 45.9567C44.6105 47.4255 50.8436 51.79 53.8556 52.6088C53.8556 52.6088 59.409 54.4921 64.2303 46.2421L42.7238 45.4921L42.7196 45.5025ZM69.9531 27.3192C69.9531 27.3192 51.6929 37.0775 42.249 43.4234C42.2016 43.4586 42.166 43.5074 42.147 43.5631C42.1279 43.6189 42.1263 43.6791 42.1423 43.7359C42.1423 43.7359 42.2322 43.8963 42.364 43.8963V43.9005L58.8589 43.8588C60.1271 43.7594 61.3733 43.473 62.557 43.0088C65.6422 41.8046 68.125 39.438 69.472 36.4213C70.7362 33.5452 70.9072 30.3095 69.9531 27.3171V27.3192ZM40.5234 41.2755C40.607 41.338 40.7221 41.3463 40.8162 41.2963C43.8909 39.7671 56.6982 33.2817 62.0006 28.1359C64.0597 26.3569 65.3314 23.8408 65.5397 21.1338C65.9267 15.1442 59.8922 9.60254 59.8922 9.60254C52.2242 19.2606 45.7102 29.7743 40.4815 40.9317H40.4878C40.4313 41.0463 40.4543 41.1817 40.5464 41.2734" fill="#F70002"/>
</svg>
