<svg width="165" height="47" viewBox="0 0 165 47" fill="none" xmlns="http://www.w3.org/2000/svg">
<path d="M61.1347 32.5542C61.1347 33.246 61.3744 33.8248 61.8539 34.3048C62.3334 34.7848 63.1936 35.3354 64.4347 35.9707C66.0988 36.8318 67.2975 37.7071 68.0167 38.5683C68.7359 39.4295 69.1026 40.4318 69.1026 41.5754C69.1026 43.2413 68.4962 44.5401 67.2975 45.486C66.0988 46.4318 64.5616 46.8977 62.6859 46.8977C61.6141 46.8977 60.627 46.7848 59.7385 46.573C58.85 46.3612 58.1731 46.1071 57.7218 45.8107V42.2389C58.3 42.7754 59.0334 43.213 59.9359 43.566C60.8385 43.9189 61.727 44.0883 62.6013 44.0883C63.5462 44.0883 64.3077 43.9048 64.8577 43.5377C65.4218 43.1707 65.6898 42.6201 65.6898 41.886C65.6898 41.2365 65.4218 40.6577 64.8859 40.1213C64.35 39.5989 63.3629 38.9495 61.9244 38.2013C60.5141 37.4671 59.4564 36.6765 58.7654 35.8154C58.0744 34.9542 57.7218 33.9377 57.7218 32.766C57.7218 31.2271 58.3282 29.9565 59.527 28.9683C60.7257 27.9801 62.2629 27.486 64.1385 27.486C64.9705 27.486 65.7744 27.5565 66.55 27.7118C67.3257 27.8671 67.9039 28.0224 68.2705 28.206V31.6224C67.7629 31.213 67.1423 30.8883 66.409 30.6483C65.6757 30.4083 64.9423 30.2954 64.1949 30.2954C63.2782 30.2954 62.5449 30.5071 61.9667 30.9165C61.4308 31.326 61.1347 31.8765 61.1347 32.5542ZM83.1911 33.1189V46.573H80.0039V44.8083H79.9475C79.5244 45.4154 78.9744 45.8954 78.2693 46.2483C77.5641 46.5871 76.7744 46.7707 75.9141 46.7707C74.3488 46.7707 73.1641 46.333 72.3462 45.4436C71.5282 44.5542 71.1193 43.1848 71.1193 41.3213V33.1471H74.3206V40.9401C74.3206 42.0695 74.5462 42.9307 74.9975 43.4954C75.4488 44.0601 76.1257 44.3565 77.0282 44.3565C77.9308 44.3565 78.65 44.046 79.1859 43.4107C79.7218 42.7754 79.9898 41.9565 79.9898 40.926V33.133H83.1911V33.1189ZM92.7103 32.893C92.9641 32.893 93.1898 32.9071 93.3872 32.9495C93.5847 32.9777 93.7539 33.0342 93.8949 33.0765V36.2813C93.7257 36.1542 93.4859 36.0413 93.1757 35.9283C92.8513 35.8154 92.4706 35.7589 92.0193 35.7589C91.2436 35.7589 90.5808 36.0836 90.0449 36.7471C89.509 37.3965 89.2411 38.413 89.2411 39.7683V46.5589H86.0821V33.1048H89.2411V35.2224H89.2975C89.5795 34.4883 90.0167 33.9095 90.609 33.5001C91.1872 33.1048 91.8923 32.893 92.7103 32.893ZM102.046 26.413C102.427 26.413 102.765 26.4271 103.062 26.4695C103.358 26.5118 103.626 26.5683 103.851 26.653V29.3918C103.753 29.3354 103.569 29.2507 103.301 29.166C103.033 29.0813 102.737 29.0389 102.399 29.0389C101.736 29.0389 101.228 29.2507 100.876 29.6601C100.523 30.0695 100.34 30.6907 100.34 31.4954V33.1189H103.33V35.7165H100.34V46.573H97.1385V35.7165H94.8962V33.1189H97.1385V31.2413C97.1385 29.8295 97.6039 28.6718 98.5205 27.7683C99.4231 26.8648 100.608 26.413 102.046 26.413ZM115.472 38.1448C115.472 40.3613 115.472 42.1118 115.472 43.3824C115.472 44.6671 115.542 45.726 115.669 46.573H112.524L112.369 45.133H112.313C111.918 45.6695 111.382 46.093 110.733 46.3754C110.085 46.6577 109.267 46.7989 108.28 46.7989C107.095 46.7989 106.108 46.446 105.304 45.726C104.5 45.006 104.105 44.0318 104.105 42.8177C104.105 41.5048 104.613 40.4601 105.642 39.6695C106.672 38.8789 108.265 38.3565 110.465 38.0742L112.383 37.8342C112.383 36.9448 112.172 36.3095 111.749 35.9424C111.326 35.5613 110.705 35.3777 109.873 35.3636C108.971 35.3636 108.11 35.5048 107.292 35.773C106.488 36.0413 105.854 36.366 105.417 36.7471V33.853C105.854 33.613 106.531 33.373 107.447 33.1471C108.364 32.9071 109.323 32.7942 110.338 32.7942C112.017 32.7942 113.286 33.2601 114.146 34.1777C115.035 35.0813 115.472 36.4083 115.472 38.1448ZM110.987 40.1495C109.591 40.3189 108.604 40.5871 108.04 40.9542C107.476 41.3354 107.18 41.8436 107.18 42.493C107.18 43.0577 107.349 43.4954 107.687 43.8342C108.026 44.173 108.533 44.3283 109.21 44.3283C110.197 44.3283 110.973 44.0318 111.551 43.4248C112.13 42.8177 112.412 42.0554 112.426 41.1377V39.9801L110.987 40.1495ZM124.864 44.2718C125.33 44.2718 125.851 44.1589 126.415 43.9471C126.98 43.7354 127.501 43.4389 127.981 43.086V46.0365C127.473 46.3189 126.909 46.5448 126.26 46.686C125.626 46.8413 124.921 46.9118 124.145 46.9118C122.171 46.9118 120.563 46.2907 119.322 45.0342C118.081 43.7777 117.46 42.1824 117.46 40.2342C117.46 38.0742 118.095 36.2954 119.35 34.8836C120.619 33.486 122.41 32.7801 124.723 32.7801C125.315 32.7801 125.908 32.8507 126.514 33.006C127.121 33.1613 127.6 33.3307 127.953 33.5424V36.5777C127.459 36.2248 126.965 35.9424 126.458 35.7448C125.95 35.5471 125.428 35.4483 124.892 35.4483C123.651 35.4483 122.636 35.8577 121.874 36.6624C121.113 37.4671 120.718 38.5683 120.718 39.9518C120.718 41.3071 121.085 42.366 121.818 43.1283C122.594 43.8907 123.595 44.2718 124.864 44.2718ZM140.645 43.1848V45.7824C140.123 46.1071 139.432 46.3754 138.586 46.5871C137.74 46.7989 136.837 46.8977 135.878 46.8977C133.833 46.8977 132.24 46.2907 131.097 45.0765C129.955 43.8624 129.391 42.1824 129.391 40.0083C129.391 37.9189 129.997 36.2107 131.21 34.8554C132.423 33.5142 133.96 32.8365 135.836 32.8365C137.697 32.8365 139.136 33.4013 140.165 34.5448C141.195 35.6883 141.717 37.2554 141.717 39.2601V40.7848H132.508C132.649 42.1401 133.086 43.086 133.805 43.6224C134.538 44.1589 135.469 44.4271 136.626 44.4271C137.387 44.4271 138.106 44.3142 138.797 44.0742C139.503 43.8624 140.109 43.5518 140.645 43.1848ZM138.614 38.4836C138.614 37.4389 138.374 36.6342 137.895 36.0836C137.415 35.533 136.724 35.2648 135.85 35.2648C135.089 35.2648 134.412 35.533 133.805 36.0836C133.199 36.6342 132.804 37.4248 132.606 38.4836H138.614ZM78.5513 2.0036V20.766H75.2936V6.05537H75.2372L69.427 20.766H67.2693L61.3039 6.05537H61.2616V20.766H58.2577V2.0036H62.9257L68.3129 15.9095H68.3975L74.0808 2.0036H78.5513ZM81.2731 3.42949C81.2731 2.90713 81.4564 2.46949 81.8372 2.11655C82.218 1.7636 82.6693 1.58007 83.1911 1.58007C83.7552 1.58007 84.2064 1.7636 84.5731 2.11655C84.9398 2.4836 85.1231 2.90713 85.1231 3.41537C85.1231 3.9236 84.9398 4.36125 84.559 4.71419C84.1782 5.06713 83.727 5.23655 83.1911 5.23655C82.6552 5.23655 82.1898 5.05302 81.8231 4.70008C81.4564 4.36125 81.2731 3.93772 81.2731 3.42949ZM84.7564 7.31184V20.766H81.5975V7.31184H84.7564ZM94.3603 18.4648C94.8257 18.4648 95.3475 18.3518 95.9116 18.1401C96.4757 17.9283 96.9975 17.6318 97.477 17.2789V20.2295C96.9693 20.5118 96.4052 20.7377 95.7564 20.8789C95.1218 21.0342 94.4167 21.1048 93.6411 21.1048C91.6667 21.1048 90.059 20.4836 88.818 19.2271C87.577 17.9707 86.9564 16.3754 86.9564 14.4271C86.9564 12.2671 87.5911 10.4883 88.8462 9.07655C90.1154 7.6789 91.9064 6.97302 94.2193 6.97302C94.8116 6.97302 95.4039 7.0436 96.0103 7.1989C96.6167 7.35419 97.0962 7.5236 97.4488 7.73537V10.7707C96.9552 10.4177 96.4616 10.1354 95.9539 9.93772C95.4462 9.74007 94.9244 9.64125 94.3885 9.64125C93.1475 9.64125 92.1321 10.0507 91.3706 10.8554C90.6372 11.6742 90.2564 12.7754 90.2564 14.1448C90.2564 15.5001 90.6231 16.5589 91.3564 17.3213C92.0898 18.0836 93.0911 18.4648 94.3603 18.4648ZM106.489 7.10007C106.742 7.10007 106.968 7.11419 107.165 7.15655C107.363 7.1989 107.532 7.24125 107.673 7.2836V10.4883C107.504 10.3613 107.264 10.2483 106.954 10.1354C106.63 10.0224 106.249 9.96596 105.797 9.96596C105.022 9.96596 104.359 10.2907 103.823 10.9542C103.287 11.6036 103.019 12.6201 103.019 13.9754V20.766H99.8603V7.31184H103.019V9.42949H103.076C103.358 8.69537 103.795 8.11655 104.387 7.70713C104.965 7.29772 105.671 7.10007 106.489 7.10007ZM107.842 14.2436C107.842 12.013 108.463 10.2624 109.718 8.9636C110.973 7.66478 112.722 7.01537 114.95 7.01537C117.051 7.01537 118.687 7.63655 119.872 8.89302C121.056 10.1495 121.649 11.8295 121.649 13.9613C121.649 16.1354 121.014 17.8718 119.773 19.1707C118.518 20.4554 116.812 21.1048 114.654 21.1048C112.567 21.1048 110.917 20.4977 109.69 19.2695C108.463 18.0271 107.842 16.3613 107.842 14.2436ZM111.142 14.1307C111.142 15.5424 111.467 16.6013 112.101 17.3495C112.736 18.0977 113.653 18.4648 114.837 18.4648C115.994 18.4648 116.868 18.0977 117.46 17.3495C118.067 16.6013 118.363 15.5142 118.363 14.046C118.363 12.5918 118.053 11.5048 117.432 10.7707C116.812 10.0365 115.937 9.66949 114.809 9.66949C113.653 9.66949 112.75 10.0507 112.115 10.8271C111.467 11.6036 111.142 12.7048 111.142 14.1307ZM126.359 10.8554C126.359 11.3071 126.5 11.6601 126.796 11.9283C127.078 12.1824 127.713 12.5071 128.7 12.9024C129.969 13.4107 130.844 13.9754 131.365 14.6107C131.873 15.246 132.127 16.0083 132.127 16.9118C132.127 18.1824 131.647 19.1989 130.674 19.9613C129.701 20.7236 128.39 21.1189 126.74 21.1189C126.176 21.1189 125.569 21.0483 124.892 20.9213C124.215 20.7801 123.637 20.6107 123.172 20.3989V17.2789C123.75 17.6742 124.371 17.9989 125.033 18.2389C125.696 18.4789 126.303 18.5918 126.839 18.5918C127.558 18.5918 128.08 18.493 128.418 18.2954C128.756 18.0977 128.926 17.7589 128.926 17.293C128.926 16.8554 128.742 16.4883 128.39 16.1918C128.037 15.8954 127.374 15.5424 126.387 15.1471C125.217 14.653 124.385 14.1024 123.905 13.4954C123.412 12.8883 123.172 12.1118 123.172 11.166C123.172 9.95184 123.651 8.9636 124.61 8.17302C125.569 7.39654 126.824 7.00125 128.362 7.00125C128.827 7.00125 129.363 7.05772 129.941 7.15655C130.519 7.25537 131.013 7.39655 131.408 7.56596V10.573C130.985 10.2907 130.505 10.0507 129.941 9.85302C129.377 9.65537 128.827 9.55655 128.277 9.55655C127.671 9.55655 127.205 9.66949 126.867 9.90949C126.528 10.1213 126.359 10.446 126.359 10.8554ZM133.481 14.2436C133.481 12.013 134.101 10.2624 135.356 8.9636C136.612 7.66478 138.36 7.01537 140.589 7.01537C142.69 7.01537 144.326 7.63655 145.51 8.89302C146.695 10.1495 147.287 11.8295 147.287 13.9613C147.287 16.1354 146.653 17.8718 145.412 19.1707C144.156 20.4554 142.45 21.1048 140.292 21.1048C138.205 21.1048 136.555 20.4977 135.328 19.2695C134.087 18.0271 133.481 16.3613 133.481 14.2436ZM136.781 14.1307C136.781 15.5424 137.105 16.6013 137.74 17.3495C138.374 18.0977 139.291 18.4648 140.476 18.4648C141.632 18.4648 142.506 18.0977 143.099 17.3495C143.705 16.6013 144.001 15.5142 144.001 14.046C144.001 12.5918 143.691 11.5048 143.071 10.7707C142.45 10.0365 141.576 9.66949 140.447 9.66949C139.291 9.66949 138.388 10.0507 137.754 10.8271C137.091 11.6036 136.781 12.7048 136.781 14.1307ZM157.78 9.90949H153.069V20.766H149.868V9.90949H147.626V7.31184H149.868V5.43419C149.868 4.02243 150.333 2.86478 151.25 1.96125C152.167 1.05772 153.351 0.605957 154.79 0.605957C155.171 0.605957 155.509 0.620075 155.805 0.662428C156.101 0.704781 156.369 0.761251 156.595 0.845957V3.58478C156.496 3.52831 156.313 3.4436 156.045 3.3589C155.777 3.27419 155.481 3.23184 155.142 3.23184C154.48 3.23184 153.972 3.4436 153.619 3.85302C153.267 4.26243 153.083 4.8836 153.083 5.68831V7.31184H157.794V4.29066L160.967 3.31655V7.31184H164.168V9.90949H160.967V16.206C160.967 17.0389 161.122 17.6177 161.418 17.9565C161.714 18.2954 162.194 18.4648 162.842 18.4648C163.026 18.4648 163.251 18.4224 163.505 18.3377C163.759 18.253 163.985 18.1401 164.182 18.0271V20.6389C163.985 20.7518 163.646 20.8507 163.181 20.9495C162.715 21.0483 162.25 21.0907 161.799 21.0907C160.459 21.0907 159.472 20.7377 158.795 20.0177C158.132 19.3118 157.794 18.2389 157.794 16.7989V9.90949H157.78Z" fill="#747476"/>
<path d="M21.5487 2.00391H0.394897V23.1804H21.5487V2.00391Z" fill="#EC5124"/>
<path d="M44.9026 2.00391H23.7488V23.1804H44.9026V2.00391Z" fill="#7DB706"/>
<path d="M21.5487 25.3828H0.394897V46.5593H21.5487V25.3828Z" fill="#05A1E9"/>
<path d="M44.9026 25.3828H23.7488V46.5593H44.9026V25.3828Z" fill="#F8B508"/>
</svg>
