<svg width="225" height="76" viewBox="0 0 225 76" fill="none" xmlns="http://www.w3.org/2000/svg">
<path d="M224.861 17.9294C227.926 35.5647 180.107 58.6582 118.044 69.5092C55.9901 80.3602 3.2002 74.8553 0.140055 57.2107C-2.92009 39.5755 44.9122 16.4867 106.966 5.64033C169.025 -5.22004 221.806 0.289518 224.861 17.9294Z" fill="#004DA3"/>
<path d="M166.453 44.1032L166.136 25.7676H171.894V48.8797H163.616L157.867 29.9138H157.742L158.063 48.8797H152.338V25.7676H160.979L166.327 44.1032H166.453Z" fill="white"/>
<path d="M61.7657 27.934L58.58 49.1225H52.2969L56.6081 25.7676H66.9559L71.2531 49.1225H64.9933L61.8959 27.934H61.7657Z" fill="white"/>
<path d="M88.8931 43.6223L91.7673 25.7676H101.255L101.757 49.1225H95.9436L95.7901 28.1255H95.6692L91.7812 49.1225H85.8795L81.9869 28.1255H81.8613L81.7171 49.1225H75.8898L76.4061 25.7676H85.8981L88.7676 43.6223H88.8931Z" fill="white"/>
<path d="M42.5026 42.5348C42.7305 43.0998 42.6607 43.8281 42.5538 44.267C42.3584 45.0421 41.8329 45.8359 40.2889 45.8359C38.8286 45.8359 37.9449 44.9954 37.9449 43.7161V41.4562H31.7037L31.6991 43.2632C31.6991 48.4692 35.7824 50.0427 40.1587 50.0427C44.3675 50.0427 47.8323 48.6 48.3811 44.7059C48.6648 42.6889 48.4508 41.3675 48.3578 40.8679C47.3765 35.9794 38.5449 34.5179 37.8891 31.7865C37.7775 31.3196 37.8101 30.82 37.8659 30.5538C38.0287 29.8115 38.5356 28.9897 39.9912 28.9897C41.3492 28.9897 42.1538 29.8348 42.1538 31.1095C42.1538 31.539 42.1538 32.5522 42.1538 32.5522H47.9532V30.9134C47.9532 25.824 43.4048 25.0303 40.1122 25.0303C35.973 25.0303 32.592 26.403 31.9735 30.2037C31.806 31.2542 31.7828 32.188 32.0246 33.36C33.0431 38.1271 41.3027 39.5092 42.5026 42.5348Z" fill="white"/>
<path d="M118.146 42.4927C118.374 43.053 118.299 43.7627 118.197 44.2016C118.006 44.9767 117.486 45.7564 115.951 45.7564C114.514 45.7564 113.635 44.916 113.635 43.6646L113.63 41.4235H107.454L107.445 43.2071C107.445 48.3618 111.491 49.9166 115.821 49.9166C119.983 49.9166 123.415 48.4925 123.959 44.6358C124.243 42.6328 124.043 41.3301 123.941 40.8398C122.964 35.9979 114.225 34.5505 113.574 31.8424C113.463 31.3755 113.495 30.8853 113.551 30.6331C113.718 29.8814 114.216 29.083 115.658 29.083C117.006 29.083 117.792 29.9047 117.792 31.1747C117.792 31.5996 117.792 32.6035 117.792 32.6035H123.55V30.9786C123.55 25.9453 119.039 25.1562 115.774 25.1562C111.681 25.1562 108.328 26.5103 107.724 30.2876C107.556 31.3242 107.538 32.2393 107.78 33.4066C108.779 38.1271 116.96 39.4998 118.146 42.4927Z" fill="white"/>
<path d="M137.683 45.6306C139.297 45.6306 139.799 44.51 139.911 43.9357C139.958 43.6835 139.972 43.3474 139.967 43.0439V25.7588H145.85V42.5116C145.864 42.9412 145.822 43.8236 145.799 44.0431C145.385 48.404 141.953 49.8188 137.679 49.8188C133.4 49.8188 129.963 48.404 129.554 44.0431C129.535 43.8236 129.494 42.9365 129.503 42.5116V25.7588H135.381V43.0392C135.381 43.3427 135.391 43.6835 135.437 43.931C135.567 44.5053 136.056 45.6306 137.683 45.6306Z" fill="white"/>
<path d="M186.213 45.3828C187.897 45.3828 188.487 44.3136 188.594 43.6926C188.636 43.4264 188.65 43.0996 188.646 42.8054V39.4157H186.26V36.0072H194.51V42.2778C194.505 42.7167 194.496 43.0389 194.426 43.8186C194.04 48.0675 190.366 49.585 186.246 49.585C182.116 49.585 178.451 48.0675 178.056 43.8186C177.991 43.0389 177.982 42.7167 177.972 42.2778L177.977 32.4447C177.977 32.0291 178.028 31.2961 178.075 30.9038C178.591 26.5382 182.116 25.1328 186.246 25.1328C190.371 25.1328 193.985 26.5289 194.412 30.9038C194.487 31.6462 194.464 32.4447 194.464 32.4447V33.2244H188.599V31.917C188.604 31.9217 188.59 31.3614 188.525 31.0299C188.427 30.5116 187.981 29.3257 186.204 29.3257C184.507 29.3257 184.014 30.4463 183.888 31.0299C183.818 31.3381 183.79 31.7536 183.79 32.1318V42.8148C183.786 43.1089 183.804 43.4358 183.851 43.7019C183.944 44.3136 184.53 45.3828 186.213 45.3828Z" fill="white"/>
</svg>
