<svg width="131" height="103" viewBox="0 0 131 103" fill="none" xmlns="http://www.w3.org/2000/svg">
<path d="M83.3484 83.3286C96.8109 75.9629 106.64 71.6961 116.96 71.6961L130.433 71.6827V26.2613L130.353 26.2426C125.651 25.5062 121.213 25.1392 116.756 25.1392C101.243 25.1392 85.5507 29.6884 65.87 39.8714L65.5921 40.0145L65.4513 40.0849C63.7209 40.9815 62.1658 41.8168 60.6916 42.6243C44.9669 51.2215 32.4932 55.8665 21.4532 57.2269H21.3558L21.2892 57.1677L17.5138 53.4253L21.3716 49.5945L21.4367 49.5907C33.9187 47.9398 45.9175 42.0992 57.0241 36.0264C59.8002 34.4967 62.5186 33.0735 65.1225 31.7791L65.4086 31.6285V31.6472L65.5344 31.5873C77.3437 25.7137 87.941 21.8268 97.9345 19.6904L98.0079 19.6694V0L97.9015 0.0037384C87.6136 1.83749 76.9999 5.22186 65.4603 10.3321C59.7912 12.843 53.8038 15.8161 47.6546 19.1915C34.1988 26.5497 24.4001 30.8165 14.1219 30.83H0.566559V76.2588L0.640718 76.2873C5.31724 77.0169 9.77128 77.3772 14.2276 77.3772C29.7485 77.3772 45.4568 72.837 65.1225 62.648L65.4086 62.5049L65.5419 62.4487C67.115 61.6157 68.7203 60.7663 70.3098 59.9041C86.0338 51.2919 98.4993 46.6603 109.54 45.2932H109.63L109.696 45.3577L113.48 49.1023L109.622 52.9354L109.557 52.9429C97.0596 54.5901 85.0608 60.4337 73.9616 66.5102C71.3009 67.9687 68.5615 69.3927 65.87 70.7411L65.5921 70.8871V70.8766L65.4513 70.9373C53.6503 76.8094 43.0515 80.7046 33.0587 82.8357L32.9846 82.8612V102.527L33.0835 102.516C43.3766 100.692 53.9776 97.311 65.5344 92.1918C71.1758 89.6928 77.1722 86.7122 83.3484 83.3286Z" fill="#2D2D2D"/>
</svg>
