<svg width="89" height="88" viewBox="0 0 89 88" fill="none" xmlns="http://www.w3.org/2000/svg">
<path d="M1.87276 0.663574H86.6297C87.6244 0.663574 88.4497 1.46992 88.4497 2.44601V85.2658C88.4497 86.2419 87.6456 87.0482 86.6297 87.0482H1.87276C0.878114 87.0482 0.0527649 86.2419 0.0527649 85.2658V2.44601C0.0739277 1.46992 0.878114 0.663574 1.87276 0.663574Z" fill="#ED7C00"/>
<path d="M67.9007 21.7134H78.7995V65.9773H67.9007V21.7134ZM29.067 38.7951H40.2198V65.6166H29.067V38.7951ZM9.85115 21.7134L20.75 21.8407H47.8807C54.7798 21.8407 59.4356 27.8883 59.4567 34.2117C59.4567 44.3122 59.5837 65.8712 59.5837 65.8712L49.0023 65.9136L48.7907 37.5431C48.7695 33.5751 46.0607 31.0075 42.1244 30.9651C37.0453 30.9014 24.1784 31.05 20.75 31.0924V65.9773H9.85115V21.7134Z" fill="white"/>
</svg>
